<mxfile host="65bd71144e">
    <diagram id="dtFIvGPaS_fb39ICS0sv" name="ページ1">
        <mxGraphModel dx="530" dy="326" grid="1" gridSize="10" guides="1" tooltips="1" connect="1" arrows="1" fold="1" page="1" pageScale="1" pageWidth="827" pageHeight="1169" math="0" shadow="0">
            <root>
                <mxCell id="0"/>
                <mxCell id="1" parent="0"/>
                <mxCell id="2" value="User" style="shape=umlActor;verticalLabelPosition=bottom;verticalAlign=top;html=1;" vertex="1" parent="1">
                    <mxGeometry x="80" y="320" width="30" height="60" as="geometry"/>
                </mxCell>
                <mxCell id="5" value="img-generator" style="ellipse;whiteSpace=wrap;html=1;" vertex="1" parent="1">
                    <mxGeometry x="320" y="315" width="140" height="70" as="geometry"/>
                </mxCell>
                <mxCell id="7" value="webアプリ&lt;br&gt;・商用利用可能にしたい→Cloudflare Pagesにデプロイできるようにしたい→Egde runtimeで動く必要あり" style="shape=note;whiteSpace=wrap;html=1;backgroundOutline=1;darkOpacity=0.05;fillColor=#ffe6cc;strokeColor=#d79b00;" vertex="1" parent="1">
                    <mxGeometry x="390" y="170" width="220" height="100" as="geometry"/>
                </mxCell>
                <mxCell id="8" value="画像をドラッグアンドドロップでアップロードして&lt;br&gt;生成をすると自動でAIがAltテキストを含めたimgタグをcodeタグで出力するようにする" style="shape=note;whiteSpace=wrap;html=1;backgroundOutline=1;darkOpacity=0.05;fillColor=#ffe6cc;strokeColor=#d79b00;" vertex="1" parent="1">
                    <mxGeometry x="20" y="120" width="290" height="130" as="geometry"/>
                </mxCell>
                <mxCell id="9" value="" style="endArrow=none;dashed=1;html=1;" edge="1" parent="1" source="2" target="8">
                    <mxGeometry width="50" height="50" relative="1" as="geometry">
                        <mxPoint x="330" y="340" as="sourcePoint"/>
                        <mxPoint x="380" y="290" as="targetPoint"/>
                    </mxGeometry>
                </mxCell>
                <mxCell id="10" value="" style="endArrow=none;dashed=1;html=1;" edge="1" parent="1" source="5" target="7">
                    <mxGeometry width="50" height="50" relative="1" as="geometry">
                        <mxPoint x="330" y="340" as="sourcePoint"/>
                        <mxPoint x="380" y="290" as="targetPoint"/>
                    </mxGeometry>
                </mxCell>
                <mxCell id="11" value="画像をアップロードする" style="endArrow=open;endSize=12;dashed=1;html=1;exitX=0;exitY=0.3333333333333333;exitDx=0;exitDy=0;exitPerimeter=0;" edge="1" parent="1" source="2" target="5">
                    <mxGeometry width="160" relative="1" as="geometry">
                        <mxPoint x="270" y="320" as="sourcePoint"/>
                        <mxPoint x="430" y="320" as="targetPoint"/>
                    </mxGeometry>
                </mxCell>
                <mxCell id="14" value="imgタグオプションを設定する" style="endArrow=open;endSize=12;dashed=1;html=1;" edge="1" parent="1" source="2">
                    <mxGeometry width="160" relative="1" as="geometry">
                        <mxPoint x="180" y="360" as="sourcePoint"/>
                        <mxPoint x="330" y="370" as="targetPoint"/>
                    </mxGeometry>
                </mxCell>
                <mxCell id="16" value="alt候補を選択する" style="endArrow=open;endSize=12;dashed=1;html=1;" edge="1" parent="1" source="2">
                    <mxGeometry width="160" relative="1" as="geometry">
                        <mxPoint x="110" y="351.2765957446808" as="sourcePoint"/>
                        <mxPoint x="330" y="370" as="targetPoint"/>
                        <Array as="points">
                            <mxPoint x="140" y="380"/>
                            <mxPoint x="210" y="400"/>
                            <mxPoint x="290" y="390"/>
                        </Array>
                    </mxGeometry>
                </mxCell>
                <mxCell id="19" value="imgタグをコピーする" style="endArrow=open;endSize=12;dashed=1;html=1;entryX=0.227;entryY=0.906;entryDx=0;entryDy=0;entryPerimeter=0;" edge="1" parent="1" source="2" target="5">
                    <mxGeometry width="160" relative="1" as="geometry">
                        <mxPoint x="180" y="430" as="sourcePoint"/>
                        <mxPoint x="340" y="430" as="targetPoint"/>
                        <Array as="points">
                            <mxPoint x="150" y="410"/>
                            <mxPoint x="220" y="440"/>
                            <mxPoint x="300" y="430"/>
                        </Array>
                    </mxGeometry>
                </mxCell>
            </root>
        </mxGraphModel>
    </diagram>
</mxfile>